<?xml version="1.0" encoding="utf-8"?>
<!-- Generator: Adobe Illustrator 16.0.0, SVG Export Plug-In . SVG Version: 6.00 Build 0)  -->
<!DOCTYPE svg PUBLIC "-//W3C//DTD SVG 1.1//EN" "http://www.w3.org/Graphics/SVG/1.1/DTD/svg11.dtd">
<svg version="1.1" id="Layer_1" xmlns="http://www.w3.org/2000/svg" xmlns:xlink="http://www.w3.org/1999/xlink" x="0px" y="0px"
	 width="35px" height="35px" viewBox="0 0 35 35" enable-background="new 0 0 35 35" xml:space="preserve">
<path d="M34.492,11.333l-0.059-8.457c-0.004-0.557-0.304-1.069-0.787-1.344c-0.484-0.275-1.078-0.272-1.558,0.009l-7.422,4.351
	c-0.479,0.281-0.772,0.79-0.769,1.346c0.004,0.556,0.305,1.052,0.789,1.326L26.4,9.53l-5.314,9.357l-8.422-4.784
	c-0.001,0-0.001,0-0.001,0c-1.163-0.661-2.641-0.254-3.302,0.91L0.816,30.055c-0.66,1.162-0.253,2.641,0.91,3.302
	c0.377,0.214,0.789,0.316,1.193,0.316c0.843,0,1.662-0.441,2.108-1.227l7.348-12.937l8.423,4.785
	c0.378,0.215,0.788,0.316,1.194,0.316c0.843,0,1.662-0.441,2.108-1.227l6.52-11.477l1.546,0.915c0.238,0.136,0.504,0.18,0.769,0.18
	c0.002,0,0.004,0,0.007,0c0.86,0,1.557-0.674,1.557-1.534C34.5,11.415,34.497,11.385,34.492,11.333z"/>
</svg>
