<?xml version="1.0" encoding="utf-8"?>
<!-- Generator: Adobe Illustrator 16.0.0, SVG Export Plug-In . SVG Version: 6.00 Build 0)  -->
<!DOCTYPE svg PUBLIC "-//W3C//DTD SVG 1.1//EN" "http://www.w3.org/Graphics/SVG/1.1/DTD/svg11.dtd">
<svg version="1.1" id="Layer_1" xmlns="http://www.w3.org/2000/svg" xmlns:xlink="http://www.w3.org/1999/xlink" x="0px" y="0px"
	 width="20px" height="20px" viewBox="0 0 20 20" enable-background="new 0 0 20 20" xml:space="preserve">
<path d="M12.766,10l5.662-5.663c0.764-0.763,0.764-2.001,0-2.764c-0.764-0.764-2.001-0.764-2.765,0L10,7.235L4.337,1.573
	c-0.763-0.764-2.001-0.764-2.764,0c-0.764,0.763-0.764,2.001,0,2.764L7.235,10l-5.663,5.663c-0.764,0.764-0.764,2.001,0,2.765
	C1.955,18.81,2.454,19,2.955,19s1.001-0.19,1.382-0.572L10,12.765l5.663,5.663C16.045,18.81,16.545,19,17.045,19
	c0.501,0,1.001-0.19,1.383-0.572c0.764-0.764,0.764-2.001,0-2.765L12.766,10z"/>
</svg>
