<?xml version="1.0" encoding="utf-8"?>
<!-- Generator: Adobe Illustrator 16.0.0, SVG Export Plug-In . SVG Version: 6.00 Build 0)  -->
<!DOCTYPE svg PUBLIC "-//W3C//DTD SVG 1.1//EN" "http://www.w3.org/Graphics/SVG/1.1/DTD/svg11.dtd">
<svg version="1.1" id="Layer_1" xmlns="http://www.w3.org/2000/svg" xmlns:xlink="http://www.w3.org/1999/xlink" x="0px" y="0px"
	 width="35px" height="35px" viewBox="0 0 35 35" enable-background="new 0 0 35 35" xml:space="preserve">
<path d="M33.449,14.618l-2.229-0.35c-0.353-1.59-0.957-3.078-1.803-4.411l1.374-1.86c0.379-0.514,0.323-1.304-0.128-1.755
	L28.755,4.33c-0.452-0.45-1.237-0.512-1.753-0.134l-1.859,1.364c-1.334-0.848-2.821-1.475-4.413-1.829l-0.349-2.183
	C20.284,0.919,19.684,0.5,19.047,0.5h-2.706c-0.637,0-1.237,0.419-1.335,1.049l-0.35,2.231c-1.591,0.354-3.079,0.956-4.413,1.803
	l-1.86-1.376C7.869,3.831,7.079,3.885,6.628,4.336L4.716,6.245c-0.451,0.45-0.512,1.239-0.134,1.753l1.364,1.859
	c-0.847,1.334-1.474,2.821-1.828,4.411l-2.375,0.351C1.112,14.716,0.5,15.318,0.5,15.955v2.704c0,0.637,0.612,1.237,1.243,1.334
	l2.327,0.353c0.354,1.592,1.006,3.076,1.854,4.413l-1.353,1.86c-0.377,0.512-0.311,1.302,0.141,1.75l1.915,1.915
	c0.451,0.452,1.242,0.509,1.756,0.133l1.861-1.363c1.333,0.85,2.822,1.473,4.413,1.828l0.351,2.378
	c0.097,0.63,0.698,1.24,1.335,1.24h2.706c0.637,0,1.237-0.61,1.334-1.24l0.35-2.331c1.591-0.353,3.079-1.004,4.412-1.85l1.86,1.349
	c0.516,0.38,1.303,0.313,1.755-0.139l1.914-1.913c0.448-0.452,0.509-1.244,0.134-1.756l-1.364-1.861
	c0.847-1.337,1.473-2.821,1.828-4.413l2.18-0.352c0.631-0.098,1.051-0.698,1.051-1.335v-2.704
	C34.5,15.318,34.08,14.716,33.449,14.618z M17.5,24.5c-3.866,0-7-3.137-7-7c0-3.866,3.134-7,7-7c3.864,0,7,3.134,7,7
	C24.5,21.363,21.364,24.5,17.5,24.5z"/>
</svg>
