<?xml version="1.0" encoding="utf-8"?>
<!-- Generator: Adobe Illustrator 16.0.0, SVG Export Plug-In . SVG Version: 6.00 Build 0)  -->
<!DOCTYPE svg PUBLIC "-//W3C//DTD SVG 1.1//EN" "http://www.w3.org/Graphics/SVG/1.1/DTD/svg11.dtd">
<svg version="1.1" id="Layer_1" xmlns="http://www.w3.org/2000/svg" xmlns:xlink="http://www.w3.org/1999/xlink" x="0px" y="0px"
	 width="35px" height="35px" viewBox="0 0 35 35" enable-background="new 0 0 35 35" xml:space="preserve">
<g>
	<path d="M24.953,5.028c-1.187-0.642-2.669-0.201-3.313,0.986c-0.642,1.187-0.201,2.669,0.986,3.311
		c3.493,1.892,5.663,5.53,5.663,9.498c0,5.95-4.841,10.791-10.79,10.791c-5.95,0-10.79-4.841-10.79-10.791
		c0-3.961,2.164-7.597,5.648-9.489c1.186-0.645,1.625-2.128,0.981-3.313s-2.128-1.625-3.313-0.98
		c-5.06,2.748-8.203,8.03-8.203,13.783C1.824,27.468,8.856,34.5,17.5,34.5c8.645,0,15.676-7.032,15.676-15.677
		C33.176,13.061,30.025,7.774,24.953,5.028z"/>
	<path d="M17,18.796c1.35,0,2-1.094,2-2.443V2.943c0-1.35-0.65-2.443-2-2.443s-2,1.094-2,2.443v13.409
		C15,17.702,15.65,18.796,17,18.796z"/>
</g>
</svg>
