<?xml version="1.0" encoding="utf-8"?>
<svg viewBox="0 0 400 80" xmlns="http://www.w3.org/2000/svg">
  <g transform="matrix(1, 0, 0, 1, -17.60076, -18.00079)">
    <path d="M 40.02 59.891 L 37.18 59.891 L 37.18 77.681 L 26.03 77.681 L 26.03 29.601 L 41.67 29.601 C 45.15 29.601 48.117 29.958 50.57 30.671 C 53.023 31.384 55.023 32.381 56.57 33.661 C 58.123 34.934 59.25 36.441 59.95 38.181 C 60.657 39.921 61.01 41.811 61.01 43.851 C 61.01 45.418 60.8 46.894 60.38 48.281 C 59.967 49.668 59.347 50.948 58.52 52.121 C 57.693 53.301 56.68 54.351 55.48 55.271 C 54.28 56.198 52.9 56.958 51.34 57.551 C 52.087 57.924 52.787 58.388 53.44 58.941 C 54.087 59.488 54.653 60.158 55.14 60.951 L 65.37 77.681 L 55.27 77.681 C 53.397 77.681 52.053 76.978 51.24 75.571 L 43.26 61.611 C 42.907 60.991 42.493 60.551 42.02 60.291 C 41.547 60.024 40.88 59.891 40.02 59.891 Z M 37.18 37.951 L 37.18 52.201 L 41.67 52.201 C 43.19 52.201 44.483 52.011 45.55 51.631 C 46.617 51.244 47.49 50.711 48.17 50.031 C 48.857 49.344 49.353 48.544 49.66 47.631 C 49.967 46.718 50.12 45.734 50.12 44.681 C 50.12 42.568 49.433 40.918 48.06 39.731 C 46.687 38.544 44.557 37.951 41.67 37.951 L 37.18 37.951 ZM 84.57 42.931 C 86.837 42.931 88.91 43.284 90.79 43.991 C 92.67 44.691 94.287 45.714 95.64 47.061 C 96.993 48.401 98.05 50.044 98.81 51.991 C 99.57 53.938 99.95 56.144 99.95 58.611 C 99.95 59.378 99.917 60.004 99.85 60.491 C 99.783 60.971 99.663 61.354 99.49 61.641 C 99.31 61.928 99.073 62.128 98.78 62.241 C 98.48 62.348 98.1 62.401 97.64 62.401 L 77.91 62.401 C 78.237 65.261 79.103 67.334 80.51 68.621 C 81.917 69.908 83.733 70.551 85.96 70.551 C 87.147 70.551 88.17 70.408 89.03 70.121 C 89.883 69.834 90.647 69.518 91.32 69.171 C 91.993 68.818 92.61 68.498 93.17 68.211 C 93.73 67.924 94.317 67.781 94.93 67.781 C 95.75 67.781 96.367 68.078 96.78 68.671 L 99.75 72.331 C 98.697 73.544 97.56 74.531 96.34 75.291 C 95.12 76.051 93.863 76.644 92.57 77.071 C 91.283 77.498 89.997 77.794 88.71 77.961 C 87.423 78.128 86.197 78.211 85.03 78.211 C 82.637 78.211 80.39 77.821 78.29 77.041 C 76.183 76.254 74.343 75.091 72.77 73.551 C 71.203 72.011 69.963 70.098 69.05 67.811 C 68.137 65.524 67.68 62.864 67.68 59.831 C 67.68 57.538 68.07 55.371 68.85 53.331 C 69.63 51.284 70.75 49.491 72.21 47.951 C 73.677 46.411 75.45 45.188 77.53 44.281 C 79.61 43.381 81.957 42.931 84.57 42.931 Z M 84.77 49.991 C 82.81 49.991 81.28 50.548 80.18 51.661 C 79.08 52.774 78.353 54.374 78 56.461 L 90.78 56.461 C 90.78 55.648 90.673 54.854 90.46 54.081 C 90.253 53.314 89.913 52.628 89.44 52.021 C 88.967 51.414 88.347 50.924 87.58 50.551 C 86.807 50.178 85.87 49.991 84.77 49.991 ZM 129.054 47.351 L 126.744 50.951 C 126.484 51.371 126.204 51.668 125.904 51.841 C 125.611 52.014 125.231 52.101 124.764 52.101 C 124.284 52.101 123.801 51.998 123.314 51.791 C 122.827 51.584 122.304 51.358 121.744 51.111 C 121.184 50.871 120.551 50.648 119.844 50.441 C 119.144 50.234 118.344 50.131 117.444 50.131 C 116.144 50.131 115.147 50.378 114.454 50.871 C 113.761 51.364 113.414 52.051 113.414 52.931 C 113.414 53.571 113.641 54.098 114.094 54.511 C 114.541 54.931 115.141 55.301 115.894 55.621 C 116.641 55.941 117.487 56.244 118.434 56.531 C 119.374 56.818 120.341 57.134 121.334 57.481 C 122.327 57.834 123.294 58.248 124.234 58.721 C 125.181 59.194 126.031 59.778 126.784 60.471 C 127.531 61.164 128.127 62.004 128.574 62.991 C 129.027 63.984 129.254 65.174 129.254 66.561 C 129.254 68.254 128.947 69.814 128.334 71.241 C 127.714 72.674 126.794 73.908 125.574 74.941 C 124.354 75.974 122.847 76.778 121.054 77.351 C 119.261 77.924 117.197 78.211 114.864 78.211 C 113.697 78.211 112.531 78.101 111.364 77.881 C 110.204 77.661 109.077 77.364 107.984 76.991 C 106.897 76.618 105.891 76.171 104.964 75.651 C 104.044 75.131 103.254 74.574 102.594 73.981 L 104.964 70.221 C 105.251 69.781 105.594 69.434 105.994 69.181 C 106.387 68.928 106.904 68.801 107.544 68.801 C 108.137 68.801 108.671 68.934 109.144 69.201 C 109.617 69.461 110.127 69.748 110.674 70.061 C 111.227 70.368 111.871 70.651 112.604 70.911 C 113.344 71.178 114.274 71.311 115.394 71.311 C 116.187 71.311 116.857 71.228 117.404 71.061 C 117.957 70.901 118.397 70.678 118.724 70.391 C 119.057 70.104 119.301 69.784 119.454 69.431 C 119.607 69.078 119.684 68.714 119.684 68.341 C 119.684 67.661 119.454 67.101 118.994 66.661 C 118.527 66.221 117.921 65.841 117.174 65.521 C 116.427 65.201 115.574 64.904 114.614 64.631 C 113.661 64.358 112.687 64.044 111.694 63.691 C 110.707 63.338 109.734 62.914 108.774 62.421 C 107.821 61.928 106.971 61.301 106.224 60.541 C 105.471 59.781 104.864 58.851 104.404 57.751 C 103.944 56.651 103.714 55.318 103.714 53.751 C 103.714 52.304 103.994 50.924 104.554 49.611 C 105.114 48.304 105.954 47.154 107.074 46.161 C 108.201 45.174 109.611 44.391 111.304 43.811 C 112.997 43.224 114.977 42.931 117.244 42.931 C 118.477 42.931 119.671 43.041 120.824 43.261 C 121.977 43.481 123.061 43.788 124.074 44.181 C 125.087 44.581 126.011 45.051 126.844 45.591 C 127.684 46.131 128.421 46.718 129.054 47.351 ZM 134.204 43.461 L 144.434 43.461 L 144.434 65.171 C 144.434 66.864 144.821 68.174 145.594 69.101 C 146.361 70.028 147.491 70.491 148.984 70.491 C 150.111 70.491 151.164 70.258 152.144 69.791 C 153.117 69.331 154.067 68.684 154.994 67.851 L 154.994 43.461 L 165.224 43.461 L 165.224 77.681 L 158.884 77.681 C 157.611 77.681 156.777 77.108 156.384 75.961 L 155.754 73.981 C 155.094 74.621 154.411 75.201 153.704 75.721 C 153.004 76.234 152.251 76.674 151.444 77.041 C 150.644 77.401 149.781 77.684 148.854 77.891 C 147.934 78.104 146.924 78.211 145.824 78.211 C 143.951 78.211 142.294 77.884 140.854 77.231 C 139.414 76.584 138.197 75.678 137.204 74.511 C 136.217 73.344 135.471 71.971 134.964 70.391 C 134.457 68.804 134.204 67.064 134.204 65.171 L 134.204 43.461 ZM 183.374 88.541 L 173.144 88.541 L 173.144 43.461 L 179.484 43.461 C 180.117 43.461 180.651 43.604 181.084 43.891 C 181.511 44.178 181.811 44.604 181.984 45.171 L 182.744 47.681 C 183.404 46.954 184.114 46.294 184.874 45.701 C 185.634 45.108 186.447 44.598 187.314 44.171 C 188.187 43.738 189.124 43.401 190.124 43.161 C 191.124 42.921 192.217 42.801 193.404 42.801 C 195.184 42.801 196.834 43.198 198.354 43.991 C 199.874 44.778 201.184 45.921 202.284 47.421 C 203.384 48.914 204.247 50.744 204.874 52.911 C 205.501 55.078 205.814 57.538 205.814 60.291 C 205.814 62.864 205.457 65.241 204.744 67.421 C 204.024 69.594 203.021 71.484 201.734 73.091 C 200.447 74.698 198.907 75.951 197.114 76.851 C 195.327 77.758 193.344 78.211 191.164 78.211 C 189.377 78.211 187.881 77.958 186.674 77.451 C 185.467 76.944 184.367 76.261 183.374 75.401 L 183.374 88.541 Z M 189.844 50.621 C 189.097 50.621 188.421 50.691 187.814 50.831 C 187.207 50.978 186.647 51.181 186.134 51.441 C 185.614 51.708 185.134 52.044 184.694 52.451 C 184.254 52.858 183.814 53.324 183.374 53.851 L 183.374 68.371 C 184.147 69.231 184.984 69.831 185.884 70.171 C 186.784 70.511 187.731 70.681 188.724 70.681 C 189.671 70.681 190.537 70.494 191.324 70.121 C 192.117 69.748 192.807 69.148 193.394 68.321 C 193.974 67.501 194.431 66.431 194.764 65.111 C 195.091 63.791 195.254 62.184 195.254 60.291 C 195.254 58.484 195.121 56.964 194.854 55.731 C 194.594 54.504 194.227 53.511 193.754 52.751 C 193.281 51.991 192.714 51.444 192.054 51.111 C 191.394 50.784 190.657 50.621 189.844 50.621 ZM 211.622 28.281 L 221.852 28.281 L 221.852 77.681 L 211.622 77.681 L 211.622 28.281 ZM 230.432 43.461 L 240.662 43.461 L 240.662 77.681 L 230.432 77.681 L 230.432 43.461 Z M 241.852 34.091 C 241.852 34.904 241.685 35.668 241.352 36.381 C 241.025 37.094 240.575 37.721 240.002 38.261 C 239.429 38.801 238.762 39.231 238.002 39.551 C 237.242 39.871 236.435 40.031 235.582 40.031 C 234.742 40.031 233.962 39.871 233.242 39.551 C 232.515 39.231 231.869 38.801 231.302 38.261 C 230.742 37.721 230.302 37.094 229.982 36.381 C 229.669 35.668 229.512 34.904 229.512 34.091 C 229.512 33.251 229.669 32.468 229.982 31.741 C 230.302 31.014 230.742 30.378 231.302 29.831 C 231.869 29.278 232.515 28.848 233.242 28.541 C 233.962 28.234 234.742 28.081 235.582 28.081 C 236.435 28.081 237.242 28.234 238.002 28.541 C 238.762 28.848 239.429 29.278 240.002 29.831 C 240.575 30.378 241.025 31.014 241.352 31.741 C 241.685 32.468 241.852 33.251 241.852 34.091 ZM 260.662 77.681 L 250.432 77.681 L 250.432 50.491 L 248.182 50.031 C 247.415 49.851 246.795 49.574 246.322 49.201 C 245.849 48.828 245.612 48.278 245.612 47.551 L 245.612 43.521 L 250.432 43.521 L 250.432 41.581 C 250.432 39.621 250.745 37.851 251.372 36.271 C 251.999 34.684 252.899 33.331 254.072 32.211 C 255.252 31.084 256.689 30.214 258.382 29.601 C 260.075 28.981 262.002 28.671 264.162 28.671 C 264.995 28.671 265.769 28.721 266.482 28.821 C 267.202 28.921 267.945 29.081 268.712 29.301 L 268.512 34.281 C 268.492 34.634 268.399 34.928 268.232 35.161 C 268.065 35.394 267.862 35.581 267.622 35.721 C 267.382 35.861 267.112 35.964 266.812 36.031 C 266.519 36.098 266.229 36.131 265.942 36.131 C 265.042 36.131 264.239 36.221 263.532 36.401 C 262.825 36.574 262.235 36.888 261.762 37.341 C 261.289 37.788 260.932 38.381 260.692 39.121 C 260.452 39.861 260.332 40.791 260.332 41.911 L 260.332 43.521 L 268.382 43.521 L 268.382 50.521 L 260.662 50.521 L 260.662 77.681 ZM 305.074 43.461 L 286.794 86.561 C 286.487 87.241 286.114 87.741 285.674 88.061 C 285.234 88.381 284.531 88.541 283.564 88.541 L 275.904 88.541 L 282.504 74.681 L 268.844 43.461 L 277.884 43.461 C 278.677 43.461 279.294 43.638 279.734 43.991 C 280.174 44.344 280.481 44.761 280.654 45.241 L 286.264 59.991 C 286.797 61.358 287.227 62.721 287.554 64.081 C 287.774 63.381 288.017 62.688 288.284 62.001 C 288.544 61.321 288.797 60.631 289.044 59.931 L 294.124 45.241 C 294.297 44.734 294.644 44.311 295.164 43.971 C 295.677 43.631 296.231 43.461 296.824 43.461 L 305.074 43.461 Z" transform="matrix(1, 0, 0, 1, 0, 0)" style="fill: rgb(120, 105, 221); white-space: pre;"/>
    <path fill="#7869dd" stroke-opacity="0" d="M 334.936 62.731 L 334.936 62.731 C 334.936 51.339 344.012 42.103 355.209 42.103 L 355.209 42.103 C 360.585 42.103 365.742 44.276 369.544 48.145 C 373.346 52.014 375.482 57.26 375.482 62.731 L 375.482 62.731 C 375.482 74.124 366.405 83.36 355.209 83.36 L 355.209 83.36 C 344.012 83.36 334.936 74.124 334.936 62.731 Z M 345.072 62.731 L 345.072 62.731 C 345.072 68.428 349.611 73.045 355.209 73.045 C 360.807 73.045 365.345 68.428 365.345 62.731 C 365.345 57.035 360.807 52.417 355.209 52.417 L 355.209 52.417 C 349.611 52.417 345.072 57.035 345.072 62.731 Z" id="svg_3" stroke="#0f0f00" style=""/>
    <path fill="#7869dd" stroke-opacity="0" d="M 355.645 92.106 L 355.645 64.694 L 355.645 64.694 C 355.645 52.92 365.022 43.374 376.591 43.374 L 376.591 43.374 L 376.591 43.374 C 382.147 43.374 387.474 45.62 391.402 49.619 C 395.331 53.617 397.537 59.039 397.537 64.694 L 397.537 67.74 L 403.521 67.74 L 391.553 79.923 L 379.584 67.74 L 385.568 67.74 L 385.568 64.694 C 385.568 59.648 381.549 55.557 376.591 55.557 L 376.591 55.557 L 376.591 55.557 C 371.633 55.557 367.614 59.648 367.614 64.694 L 367.614 92.106 L 355.645 92.106 L 355.645 92.106 Z" id="svg_4" stroke="#0f0f00" style="stroke-linejoin: round; stroke-linecap: round;" transform="matrix(0.85842, 0.512948, -0.512948, 0.85842, 88.488477, -185.115568)"/>
    <path d="M 123.414 75.729 H 123.414 L 123.414 73.054 L 133.718 82.416 L 123.414 91.778 L 123.414 89.103 H 123.414 V 75.729 Z" style="stroke-linecap: round; fill: rgb(120, 105, 221); stroke-miterlimit: 8; stroke-linejoin: round; stroke: rgb(120, 105, 221); stroke-width: 6px;" transform="matrix(-0.484819, 0.874615, -0.874615, -0.484819, 522.086609, 4.903991)"/>
  </g>
</svg>