<?xml version="1.0" encoding="utf-8"?>
<!-- Generator: Adobe Illustrator 16.0.0, SVG Export Plug-In . SVG Version: 6.00 Build 0)  -->
<!DOCTYPE svg PUBLIC "-//W3C//DTD SVG 1.1//EN" "http://www.w3.org/Graphics/SVG/1.1/DTD/svg11.dtd">
<svg version="1.1" id="Layer_1" xmlns="http://www.w3.org/2000/svg" xmlns:xlink="http://www.w3.org/1999/xlink" x="0px" y="0px"
	 width="20px" height="20px" viewBox="0 0 20 20" enable-background="new 0 0 20 20" xml:space="preserve">
<path d="M18.947,16.27l-4.714-4.714c0.63-1.084,0.992-2.342,0.992-3.684c0-1.967-0.766-3.815-2.156-5.206S9.83,0.509,7.863,0.509
	C3.803,0.509,0.5,3.813,0.5,7.872c0,1.967,0.766,3.815,2.156,5.206s3.24,2.157,5.207,2.157c1.351,0,2.617-0.368,3.707-1.006
	l4.708,4.709c0.369,0.369,0.852,0.553,1.335,0.553c0.482,0,0.966-0.184,1.334-0.553C19.685,18.202,19.685,17.007,18.947,16.27z
	 M4.476,11.259c-0.904-0.904-1.402-2.107-1.402-3.387c0-2.642,2.148-4.79,4.79-4.79c1.279,0,2.482,0.498,3.387,1.402
	c0.905,0.905,1.403,2.108,1.403,3.388c0,2.641-2.149,4.79-4.79,4.79C6.583,12.662,5.381,12.164,4.476,11.259z"/>
</svg>
